<?xml version="1.0" encoding="UTF-8"?>
<svg width="200" height="200" viewBox="100 100 440 440" xmlns="http://www.w3.org/2000/svg">
	<g stroke="#000" stroke-linecap="round" stroke-linejoin="round" stroke-width=".3">
		<path
			d="m307 324-8 10 13-4 8-10zm0 0-13-4 13-5 13 5zm5-15-13-4 8 10 13 5zm0 0v-14l8 11v14zm15 0-7 11 12-5 8-10zm0 0v-14l-7 11v14zm5 15-12-4 12-5 13 5zm0 0-12-4 7 10 13 4zm-12 9v-13l7 10v14zm0 0v-13l-8 10v14zm12-53v-13l8-11v14zm-25 0v-13l-8-11v14zm13-9-13-4 13-4 12 4zm-21-15 8-10 13-5-8 11zm-13 4-12-4 12-4 13 4zm0 14-8 11 13-5 8-10zm0 21-12-4-8-11 12 5zm-8 25-12-5-13 5 13 4zm-4-15v-14l-8 11v13zm-8-25-8 11-13 4 8-10zm-13 40v-14l-8-11v14zm-16 0-12-5-13 5 13 4zm-4-15-8 10-13 5 8-11zm-13 4v-14l-8 11v14zm-8 11-13-5-12 5 12 4zm-13-5v-13l-7-11v14zm13 18-8 11-12 4 7-11zm0-27-13-4-7-11 12 4zm-33-11-13-4-8-11 13 5zm20-15-7 11-13 4 8-10zm0 0v-13l-7-11v14zm-28 40-13-5-12 5 12 4zm-5-15-8 10-12 5 8-11zm-12 4v-14l-8 11v14zm12-39v-14l-8 11v13zm-8-3-12-4-13 4 13 4zm0 0-12-4-8-11 13 4zm-33-11-13-4-12 4 12 4zm0 0-13-4-7-11 12 5zm21-15-8 11-13 4 8-10zm-13 5v-14l-8-11v14zm5-29-13-4-13 4 13 4zm41 0-8 11-13 4 8-11zm0 0-13-4-12 4 12 4zm0 0-13-4-8-11 13 5zm0 0v-13l-8-11v14zm8-10v-14l-8 11v13zm-8 24v-14l-8 11v13zm13-53v-13l7-11v14zm-26 0-8 11-12 4 8-11zm0 0v-13l-8-11v14zm26-13-13-4-13 4 13 4zm-13-4 8-11-13 4-8 11zm-21-7-12-4-13 4 13 4zm0 0v-13l8-11v13zm8-24-12-4-8-11 12 4zm-20-15v-13l-8-11v13zm-8 11 8-11-13 4-8 11zm8 24v-13l-8-11v13zm-29 4-12-4-13 4 13 4zm-5-15-7 11-13 4 8-11zm21-20-13-4-8-11 13 4zm-28-4-13-4-13 4 13 4zm0 0v-13l7-11v13zm-13 39-8 11-13 4 8-11zm0 0-13-4-12 4 12 4zm0 0-13-4-8-11 13 4zm0 0v-13l-8-11v13zm-33 24-8 11-13 4 8-11zm0 0v-13l-8-11v14zm0 35v-13l-8-11v13zm12 4-12-4-13 4 13 4zm8-10v-14l-8 11v13zm-8-3-12-4-8-11 13 4zm-12 31v-14l-8 11v14zm20 6-8 11-12 4 8-10zm0 0v-13l-8-11v14zm5 15-13-4-12 4 12 4zm8-24-13-4-8-11 13 4zm20-15-7 11-13 4 8-11zm0 0v-13l-7-11v14zm-7-10-13-5-13 5 13 4zm-5-29v-13l-8-11v14zm-8-10v-14l-8 11v13zm20 1-12-4-8-11 13 4zm21 20-8 11-13 4 8-11zm13 4-13-4-8-11 13 4zm0-21v-14l-8 11v13zm0 35v-14l-8 11v13zm-21 28v-14l-8 11v14zm-33 45-8 11-13 4 8-10zm0 0v-13l-8-11v14zm-13 5-12-5-8-10 12 4zm33 10-12-4-8-11 13 5zm0-21v-14l-7 11v14zm13-4-8 10-12 5 7-11zm8 10v-13l-8-11v14zm-21 29v-14l-7 11v14zm34 11-8 10-13 4 8-10zm0 0-13-5-13 5 13 4zm0 0-13-5-8-10 13 4zm0 0v-14l-8-11v14zm0 13v-13l-8 10v14zm8 11v-14l-8-10v13zm-21 15v13l-8 11v-14zm25 13-7 11-13 4 8-11zm0 0-12-4-13 4 13 4zm-12 26-13-5-8-10 13 4zm25 0v13l8 11v-14zm0 13-13-4 8 11 13 4zm8 11-8 10-13 5 8-11zm0 0-13-4-12 4 12 4zm0 0v13l8 11v-14zm0 0v13l-8 11v-14zm13 4-13-4 8 10 12 5zm-5-28v13l-8 11v-14zm5-15-13-4-13 4 13 4zm7-24-12-5-8-10 13 4zm0 0v13l-7 11v-14zm-33 10v14l-8-11v-13zm13-25-8 10-13 5 8-11zm-13-10-12-4-8-10 12 4zm33 3v-13l-7 10v14zm21 7v-14l-8-10v13zm5 15v13l8 11v-14zm0 13-13-4-13 4 13 4zm-13 4-13-4 8 11 13 4zm21 7-8 10-13 5 8-11zm7 10v14l-7 11v-14zm-15 0v14l8 11v-14zm20-6-12-4 7 10 13 5zm-5-28v13l-7 11v-14zm-7-25-13-4-8-10 13 4zm20-1v-13l-8 10v14zm5 15-13-4 8 10 13 5zm8 11v13l8 11v-14zm0-22v-13l8 10v14zm20 7-8 10-12 5 8-11zm21 15v13l-8 11v-14zm-16 0-13-5 8 11 13 4zm8 24-13-4-12 4 12 4zm13 4-13-4 8 10 13 5zm-54-4-13-4-12 4 12 4zm20 15v13l8 11v-14zm-4 20-8 10-13 4 8-10zm4-7-12-4 8 11 12 4zm8 11v13l-8 11v-14zm-8 10-12-4-13 4 13 5zm21-6v13l8 11v-13zm-5-28v13l-8 11v-14zm5 41-13-4 8 11 13 4zm21 7-8 11-13 4 8-11zm0 0 12 4 8 11-13-4zm-21 15v13l8 11v-14zm13-39-13-4-13 4 13 4zm15 0 13 4 13-4-13-4zm13 4v13l-8 11v-13zm0 35v13l-8 11v-14zm0-22-8 11 13-4 8-11zm13-17v13l8 11v-14zm12-4 13 4 8 10-13-4zm-4 14 12 5 13-5-13-4zm0-21-8 11 12-4 8-11zm-16-13v13l8 11v-14zm16 0v13l-8 11v-14zm-21-15 13 4 12-4-12-4zm-13 4-7 11 12-5 8-10zm5-28v13l8 11v-14zm16 0-8 10 13-4 8-11zm5-15 12 4 8 11-12-5zm8-24 12 4 13-4-13-5zm12 39v13l-8 11v-14zm0-22v-13l-8 10v14zm13-4v-13l8 10v14zm-5 15-8 11 13-5 8-10zm5-28v-14l8-11v14zm16 0 12 4 13-4-13-5zm4 14 8-10 13-4-8 10zm21-14 13 4 12-4-12-5zm13-5v-13l7-11v14zm-21-6v-14l8 11v14zm8 24 13 4 7 11-12-4zm0-27 8-11 12-4-7 11zm13-26 12 5 8 10-13-4zm0 0v-13l7-11v14zm-26-13 13 4 13-4-13-4zm-8-11 8-10 13-5-8 11zm13-4 13 4 8 11-13-4zm-20-6v-14l7-11v14zm7 24v-14l8 11v13zm-7 10v-13l7-11v14zm7 25 13 4 8 11-13-5zm-33-25 13 5 8 10-13-4zm-8 25v-14l8 11v13zm-12-10 8-10 12-5-8 11zm0-21-13-4 8 10 13 5zm-13-18-13-4-7-11 12 5zm13 4-13-4 13-4 12 4zm-46-28-13-4-8-11 13 4zm25 0 8-11 13-4-8 11zm8-11-13-4 13-4 13 4zm13-4v-13l8-11v14zm12 4 8-10 13-4-8 10zm-25-8v-13l-8-11v13zm13-9-13-4-8-11 13 4zm-33-11 7-11 13-4-8 11zm0 0-13-4-8-11 13 4zm20-15v-13l-8-11v14zm-41 35v-13l8-11v13zm0-35v-13l8-11v14zm-13 26 8-11 13-4-8 11zm0 13v-13l-8-11v14zm-12 4-13-4-8-10 13 4zm25 0-13-4 13-4 13 4zm-5 20v-13l-8-11v14zm-16 0v-13l8-11v14zm-20 15-13-4-12 4 12 4zm-5-15-8 11-12 4 7-10zm13-9 8-11 12-4-8 11zm-21-15-12-4-13 4 13 4zm0 0v-13l8-11v14zm21-6-13-4 13-5 12 5zm-13-18-13-4-7-11 12 4zm-28-4 8-11-13 4-8 11zm-5 28v-13l-8-11v14zm13 18v-14l-8 11v14zm7 11v-14l-7-11v14zm-7 10-13-4-8-11 13 5zm-13-4-8 11-13 4 8-11zm5 15-13-4-13 4 13 4zm8 3v-14l-8 11v13zm7 10v-13l-7-11v14zm13-9-13-4-7-11 12 4zm-61-15-13-4-13 4 13 4zm-5-15v-13l-8-11v14zm12-9-12-4-8-11 13 4zm5-15-12-4-13 4 13 4zm-5-15-7 11-13 4 8-10zm21-20-13-4-8-10 13 4zm0 0v-13l-8-11v14zm5-28-13-4-13 4 13 4zm-26 0-12-4-8-11 13 4zm0 0v-13l-7-11v13zm13-4v-13l8-11v13zm0-13 8-11-13 4-8 11zm0-22-13-4-12 4 12 4zm0 0v-13l8-11v13zm-25 0v-13l-8-11v13zm-8-24-13-4-8-11 13 4zm13-4 7-11-12 4-8 11zm-21-7v-13l8-11v13zm16 0v-13l-8-11v13zm-29 18 8-11-12 4-8 11zm13 17-13-4-12 4 12 4zm0 0v-13l8-11v13zm-33-11-13-4-13 4 13 4zm54-52-13-4-13 4 13 4zm0 0v-13l7-11v13zm20 15 8-11 13-4-8 11zm13 9v-13l8-11v13zm-13 26-13-4-7-11 12 4zm21 6-13-4 13-4 12 4zm0 22 7-11 13-4-8 11zm0 0-13-4-8-11 13 4zm20 28-13-4 13-4 13 4zm13-4 8-11 12-4-8 11zm0 0-13-4-8-11 13 4zm0 0v-13l-8-11v13zm0 0v-13l8-11v13zm-21 15 8-11 13-4-8 11zm13 9v-13l8-11v14zm16 0v-13l-8-11v14zm12-9-12-4-8-11 12 4zm-8-11-12-4 12-4 13 4zm0-43v-13l8-11v13zm21 15 8-11 13-4-8 11zm8-11-13-4-8-11 13 4zm13-4v-13l-8-11v13zm0 0v-13l7-11v13zm-21-7-13-4 13-4 13 4zm-13-17 8-11 13-4-8 11zm0 0-12-4-8-11 12 4zm-8-11v-13l8-11v13zm-25 22 8-11 13-4-8 11zm0 13v-13l-8-11v13zm13 4-13-4 13-4 12 4zm-26-43v-13l-7-11v13zm13-9-13-4-7-11 12 4zm-8-11-12-4 12-4 13 4zm-12-4 7-11 13-4-8 11zm0 0-13-4-8-11 13 4zm0 0v-13l-8-11v13zm0 0v-13l7-11v13zm-13 4-13-4 13-4 13 4zm46-28 8-11 12-4-8 11zm0 0-13-4-8-11 13 4zm33 11-13-4-8-11 13 4zm0 13v-13l8-11v13zm-13 4-12-4 12-4 13 4zm0-8v-13l-8-11v13zm21 28v-13l-8-11v13zm25 0v-13l8-11v13zm-12-9 7-11 13-4-8 11zm0 0-13-4-8-11 13 4zm20-15v-13l-8-11v13zm-20-7-13-4 12-4 13 4zm20-6 8-11 13-4-8 11zm33-11 8-11 13-4-8 11zm0 0-12-4-8-11 12 4zm-20 20v-13l8-11v13zm0 8-13-4 13-4 12 4zm33 11 8-11 12-4-7 11zm-25 13v-13l-8-11v13zm38-4v-13l7-11v13zm-13 26-13-4-8-11 13 4zm0 13v-13l8-11v13zm-13 4-12-4 12-4 13 4zm-12-4v-13l-8-11v13zm-8-24 8-11 12-4-8 11zm0 0-13-4-8-11 13 4zm-13 17-13-4 13-4 13 4zm-8 11 8-11 13-4-8 11zm8 11-13-4-7-11 12 4zm-20 20v-13l-8-11v13zm0 0v-13l7-11v13zm0 8-13-4 13-4 12 4zm33 11 8-11 12-4-8 11zm8-11-13-4 13-4 12 4zm4 20v-13l8-11v14zm16 0v-13l-8-11v14zm-8-24 8-11 13-4-8 11zm0 0-12-4-8-11 12 4zm0 0v-13l-8-11v13zm0 0v-13l8-11v13zm13 4-13-4 13-4 13 4zm8 11-13-4-8-11 13 4zm-8 24 8-11 12-4-7 11zm-13 18-12-4 12-5 13 5zm21 6 12 4 13-4-13-4zm0 0v-13l-8-11v14zm-21 15-12-4-8-11 12 4zm13 9 13 5 7 10-12-4zm-5 15 13 4 12-4-12-4zm-20-15v-13l-8-11v14zm4 29v-14l8 11v13zm21 1 8-11 12-4-7 11zm33-54v-13l8-11v14zm-13 18v-14l8 11v14zm29-18 12 4 13-4-13-4zm5 15 7-11 13-4-8 11zm12 9v-13l8-11v14zm-5 15 13 4 13-4-13-4zm26 14v-14l8 11v13zm-13 25 8-10 13-5-8 11zm13 10 12 4 8 11-12-5zm-5 15 13 4 12-4-12-5zm5 14 8-10 12-4-8 10zm-13 10 13 4 8 11-13-5zm25 0v-14l8-10v13zm-12 25v14l8-11v-13zm8 3 12 4 13-4-13-4zm0 0 12 4 8 11-13-4zm33 11 13 4 12-4-12-4zm0 0 13 4 7 11-12-5zm-21 15 8-11 13-4-8 10zm13-5v14l8 11v-14zm-5 29 13 4 13-4-13-4zm0 0v13l-8 11v-14zm-33-11-8 11 13-4 8-11zm-8 11 13 4 12-4-12-4zm0 0 13 4 8 11-13-5zm0 0v13l8 11v-14zm0 0v13l-8 11v-14zm-13 4-7 11 12-5 8-10zm5-28v13l8 11v-14zm16 0v13l-8 11v-14zm-21-15 13 4 13-4-13-4zm-7-24 7-11 13-4-8 10zm0 0v13l7 11v-14zm-26 0v13l-8 11v-14zm5-15v-14l8-10v13zm-5 28 13 4 13-4-13-4zm-8 11 13 4 8 11-13-5zm21-7-8 11 13-4 8-11zm-13 17v14l-8 11v-14zm26 14 12 4 8 11-13-4zm-5 15 12 4 13-4-13-4zm-16 0v13l8 11v-14zm-25 0 12 4 13-4-13-4zm0 0v13l-8 11v-14zm5-29v14l7 11v-14zm-5-6-8 11 13-5 7-10zm-8 59 13 4 7 11-12-4zm28 4-8 11 13-4 8-11zm5 7 13 4 8 10-13-4zm0 0v13l8 11v-14zm28 4v13l-7 11v-14zm-7 24 12 4 8 11-13-4zm0 0v13l7 11v-13zm-13 4v13l-8 11v-13zm20-15 13 4 13-4-13-4zm-20 28-8 11 13-4 8-11zm0 22 13 4 12-4-12-4zm0 0v13l-8 11v-13zm25 0v13l8 11v-13zm8 24 13 4 8 11-13-4zm-13 4-7 11 12-4 8-11zm21 7v13l-8 11v-13zm-16 0v13l8 11v-13zm29-18-8 11 12-4 8-11zm12-17v13l8 11v-13zm-25 0 13 4 12-4-12-4zm0 0v13l-8 11v-13zm5-15 12 4 8 11-12-4zm8-24 12 4 13-4-13-4zm0 0v13l-8 11v-13zm12 4v13l8 11v-13zm-20-28v13l8 11v-14zm8-11-8 11 12-4 8-11zm12-4 13 4 8 11-13-4zm8 11v13l-8 11v-14zm13-18-8 11 13-4 8-11zm13-17 7-11 13-4-8 11zm0 0v13l7 11v-14zm7 10 13 5 13-5-13-4zm-20-28v14l8-11v-14zm13-39v14l7-11v-14zm-13 4 8-10 12-5-7 11zm13-25 12 4 8 11-13-5zm0 0v-14l7-11v14zm20 15 8-11 13-4-8 10zm0 0v13l8 11v-14zm13-5 12 5 8 10-12-4zm-13-17v-13l8 10v14zm-13-18 13 5 13-5-13-4zm13-4v-13l8-11v14zm-20-6v-14l7 11v13zm0-14 7-10 13-5-8 11zm-21-15v-13l8-11v14zm-13 40 8-11 13-4-8 10zm0 0 13 4 13-5-13-4zm0 0 13 4 8 10-13-4zm0 0v-14l8-11v14zm13 39v13l8 11v-14zm-13-26v-13l8 10v14zm-8-24v-14l8 11v14zm-4-42 7-11 13-4-8 11zm0 0 12 4 13-4-13-4zm12-26 13 5 8 10-13-4zm-33-24 8-10 13-5-8 11zm0 0 13 4 12-4-12-4zm0 0 13 4 8 11-13-4zm0 0v-13l8-11v14zm-8-10v-14l8 11v13zm8 24v-14l8 11v13zm13-53 12 4 8 11-12-4zm0 0v-13l8-11v14zm-26 0v-13l-7-11v14zm0-13 13 4 13-4-13-4zm13-4 13 4-8-11-13-4zm-20-7 7-11 13-4-8 11zm0 0v-13l7-11v13zm-13-4v-13l-8-11v13zm0-13 13 4-8-11-13-4zm-21-7 8-11 13-4-8 11zm0 0-12-4-8-11 13 4zm21-15 13 4 12-4-12-4zm0 0v-13l-8-11v13zm-13 39 13 4 13-4-13-4zm13-52 8-11 12-4-7 11zm20-15 13 4-8-11-12-4zm-33-11v-13l-8-11v13zm13-9-13-4-8-11 13 4zm-8-11-13-4 13-4 13 4zm-13-4 8-11 13-4-8 11zm0 0-12-4-8-11 13 4zm0 0v-13l-7-11v13zm0 0v-13l8-11v13zm-12 4-13-4 13-4 12 4zm53-4 13 4 13-4-13-4zm0 0v-13l-7-11v13zm21 28v-13l-8-11v13zm13 18 12 4-8-11-12-4zm12 17v-13l8-11v13zm8 11 13 4-8-11-13-4zm0-22 13 4 13-4-13-4zm5 15 8-11 13-4-8 11zm-38-4 13 4 12-4-12-4zm0 0v-13l-8-11v13zm-8-24 8-11 13-4-8 11zm-8-11v-13l8-11v13zm0 35v-13l8-11v13zm21 15 8-11 12-4-8 11zm8 24 12 4 13-4-13-4zm0 0v-13l-8-11v13zm12-4v-13l8-11v13zm0 22v-14l8 11v13zm0 21 8-11 13-4-8 11zm13-4 13 4 8 11-13-4zm-13 18v-14l8 11v13zm8 10 13 4 13-4-13-4zm26 0 12 4 8 11-13-4zm0 0v-13l7-11v14zm-13 18v-14l8 11v14zm-8 11v-14l8-11v14zm8 10 8-10 12-5-7 11zm0 0 13 4 12-4-12-4zm0 14 13 4 7 11-12-5zm13 4v-14l7 11v14zm28-18 13 4 12-4-12-4zm-8 24 13 5 8 10-13-4zm0 0v-13l8-11v14zm13 5 8-11 12-4-8 10zm20-15v-14l8 11v13zm0-14 8-10 13-5-8 11zm13-4 13 4 7 11-12-4zm-5 15 13 4 12-4-12-4zm-28-26 12 5 8 10-12-4zm0 0v-13l8-11v14zm-13-9 8-11 13-4-8 11zm21-15 12 4 13-4-13-4zm12-4v-13l8-11v13zm-20-6v-14l8 11v13zm8-3 7-11 13-4-8 11zm12-26 13 4 8 11-13-4zm0 0v-13l8-11v14zm-33-24 8-11 13-4-8 11zm0 0 13 4 12-4-12-4zm0 0 13 4 8 11-13-4zm0 0v-13l8-11v13zm-8-11v-13l8 11v13zm8 25v-14l8 11v13zm-13-53 13 4 13-4-13-4zm0 0v-13l-7-11v13zm-7 24 12 4 8 11-13-4zm-5 15 12 4 13-4-13-4zm5 15 7-11 13-4-8 11zm12 9v-13l8-11v14zm-5 29 13 4 13-4-13-5zm79 73 13 5 8 10-13-4zm0 0v-13l8-11v14zm-12 39 8-10 12-4-8 10zm0 0 12 5 13-5-13-4zm0 0 12 5 8 10-12-4zm0 0v-13l8-11v14zm-8-10v-14l8 11v13zm8 24v-14l8 11v14zm-21-28 13 4 8 10-13-4zm-5 14 13 5 13-5-13-4zm18 25v-14l8-11v14zm20 15 8-11 13-4-8 10zm0 0v13l8 11v-14zm-25 13 13 4 12-4-12-4zm5 15 8-11 12-4-7 11zm-13 74 8-11 13-4-8 11zm0 0v13l8 11v-14zm-33 24 13 4 12-4-12-4zm0 0 13 4 8 11-13-4zm0 0v13l8 11v-13zm0 0v13l-8 11v-13zm8-11-8 11 13-4 8-11zm0-13v13l-8 11v-14zm13-26 12 4 8 11-13-4zm0-13 12 4 13-4-13-4zm-8 10v14l8-11v-13zm20-6v13l8 11v-13zm0-22v14l8-11v-14zm-20-6 8-11 12-4-8 10zm0 0v13l8 11v-14zm20-15 13 4 8 11-13-5zm-25 0 13 4 12-4-12-4zm25-14v14l8-11v-13zm-33 38 13 4 8 11-13-4zm-8 54v13l8 11v-14zm-12 9 12 4 8 11-13-4zm-5 15 12 4 13-4-13-4zm12 4-7 11 12-4 8-11zm0 35 13 4 13-4-13-4zm0 0v13l-7 11v-13zm-33-11-8 11 13-4 8-11zm5 7 13 4 8 11-13-4zm-5 15 13 4 13-4-13-4zm-54 52 13 4 13-4-13-4zm0 0v13l-7 11v-13zm-33-24v13l-8 11v-13zm13-26 13 4 7 11-12-4zm-33-2 12 4 13-4-13-4zm12-26 13 4 8 11-13-4zm-12 4-8 11 13-4 7-11zm20-28 13 4 13-4-13-4zm-33-11-8 11 13-4 8-11zm-8 11 13 4 13-4-13-4zm0 0 13 4 8 11-13-4zm0 0v13l8 11v-13zm0 0v13l-8 11v-13zm-12 4-8 11 12-4 8-11zm4-28v13l8 11v-14zm16 0v13l-8 11v-14zm-28 9 12 4 8 11-12-4zm-5 15 13 4 12-4-12-4zm-28 4v13l7 11v-13zm0 0v13l-8 11v-13zm0-8 12 4-12 4-13-4zm-29 4-13-4-12 4 12 4zm8 24 13 4 8 11-13-4zm8 11-8 11-13 4 8-11zm13 4v13l7 11v-13zm0 0v13l-8 11v-13zm20-15-8 11-12 4 7-11zm-8 11 13 4 8 11-13-4zm29 4 12 4 13-4-13-4zm0 0v13l-8 11v-13zm-21 7 13 4-13 4-13-4zm13 17-8 11-13 4 8-11zm0 0 12 4 8 11-12-4zm8 11v13l-8 11v-13zm12-18-8 11 13-4 8-11zm13-17v13l8 11v-13zm13 39v13l7 11v-13zm-13 9 13 4 7 11-12-4zm20 15 13 4 13-4-13-4zm0 0 13 4 8 11-13-4zm0 0v13l8 11v-13zm0 0v13l-7 11v-13zm-12 4-8 11 13-4 7-11zm20-15-8 11 13-4 8-11zm-41 35-8 11-12 4 8-11zm0 0 13 4 8 11-13-4zm-33-11 13 4 8 11-13-4zm0-13v13l-8 11v-13zm13-4 12 4-12 4-13-4zm0 8v13l8 11v-13zm-21-28v13l8 11v-13zm-25 0v13l-8 11v-13zm13 9-8 11-13 4 8-11zm0 0 12 4 8 11-13-4zm-21 15v13l8 11v-13zm21 7 12 4-12 4-13-4zm-21 6-8 11-13 4 8-11zm-33 11-8 11-13 4 8-11zm0 0 12 4 8 11-12-4zm20-20v13l-8 11v-13zm-28-4-13-4-12 4 12 4zm28-4 13 4-13 4-12-4zm-33-11-8 11-12 4 7-11zm25-13v13l8 11v-13zm-38 4v13l-7 11v-13zm26-22-13-4 8 11 13 4zm-13-17v13l-8 11v-13zm-8-11-12-4 7 11 13 4zm0 22-12-4-13 4 13 4zm-12-26-8 11-13 4 8-11zm-21 15-13-4-12 4 12 4zm0 0v13l8 11v-13zm0 13-8 11-12 4 7-11zm-20 15-13-4 8 11 12 4zm33 11v13l8 11v-13zm0 13-13-4 8 11 13 4zm8 11-8 11-13 4 8-11zm0 0-13-4-13 4 13 4zm0 0v13l7 11v-13zm0 0v13l-8 11v-13zm12 4-12-4 7 11 13 4zm-53-4-13-4-13 4 13 4zm0 0v13l7 11v-13zm-21-28v13l8 11v-13zm-13-18-12-4 8 11 12 4zm-12-17v13l-8 11v-13zm-8-11-13-4 8 11 13 4zm0 22-13-4-13 4 13 4zm-5-15-8 11-13 4 8-11zm-28 4-13-4-13 4 13 4zm0 0v13l7 11v-13zm-46-63-13-4-8-11 13 4zm0 0v13l-8 11v-14zm0-35v13l-8 11v-13zm12-4-12-4-13 4 13 4zm0 13-7 11-13 4 8-11zm8-3v14l-8-11v-13zm26 0-13-4-13 4 13 5zm7-10-12-4-8-11 13 4zm0 0v13l-7 11v-14zm13 17-13-4 8 11 13 4zm13-17-13-4-13 4 13 4zm0 0v13l8 11v-14zm-13-18v14l-8-11v-14zm8-11v14l-8 11v-14zm-8-10-8 10-12 5 7-11zm0 0-13-4-12 4 12 4zm0-14-13-4-7-11 12 5zm-13-4v14l-7-11v-14zm-20-6-13-5-8-10 13 4zm0 0v13l-8 11v-14zm20-15-7 10-13 5 8-11zm0 0v-14l-7-10v13zm-28 39-13-4-12 4 12 4zm-25-14v14l-8-11v-13zm20-15-8 11-12 4 8-10zm-20-20-13-4-8-10 13 4zm5-14-13-5-13 5 13 4zm41 0-13-5-13 5 13 4zm-13 17v-13l-8 10v14zm0-22v-13l-8-11v14zm-33-10-8 10-13 5 8-11zm0-35v-14l-8 11v13zm0-14-13-4-8-11 13 5zm-8 11-13-4-12 4 12 4zm-5-15-8 11-12 4 7-11zm-20 28-8 11-13 4 8-10zm0 0v-13l-8-11v14zm12 40-8 10-12 4 8-10zm0 0-12-5-13 5 13 4zm0 0-12-5-8-10 12 4zm0 0v-14l-8-11v14zm-12 39-13-5-8-10 13 4zm0 0v13l-8 11v-14zm25 13-13-4-12 4 12 4zm-5 15-13-4-7-11 12 4zm13-4-8 10-13 5 8-11zm0 21v14l-8-11v-14zm20-6-12-5-8-10 12 4zm0 0v13l-8 11v-14zm13 9-8 11-13 4 8-11zm-46-63v-14l-8-10v13zm-8-11v-13l-8 10v14zm8-24v-14l-8 11v14zm100 137-8 11-13 4 8-11zm-8 11v13l8 11v-14zm20-7-12-4 8 11 12 4zm8 11v13l-8 11v-14zm-8 24-12-4-13 4 13 4zm0 0v13l8 11v-13zm21-7-13-4 8 11 13 4zm13-4-13-4-13 4 13 4zm7 11-7 11-13 4 8-11zm0 0v13l-7 11v-13zm-12 39v13l-8 11v-13zm-16 0-13-4-12 4 12 4zm0 0v13l8 11v-13zm-5-15-8 11-12 4 8-11zm-20-20v13l-8 11v-13zm-29-4-12-4-13 4 13 4zm-12 4-13-4 8 11 12 4zm-13-4-8 11-13 4 8-11zm0 0-13-4-12 4 12 4zm0 0v13l8 11v-13zm0 0v13l-8 11v-13zm20-15-7 11-13 4 8-11zm-12-9v13l-8 11v-14zm-16 0v13l8 11v-14zm0 13-13-4 8 11 13 4zm95 74-8 11-13 4 8-11zm8 11v13l-8 11v-13zm25-57-13-4 8 11 13 4zm0-13v13l8 11v-13zm13-4-13-4-13 4 13 4zm41 0-8 11-13 4 8-11zm0 0-13-4-13 4 13 4zm0 0v13l8 11v-13zm0 0v13l-8 11v-13zm-8-11-13-4 8 11 13 4zm20 15-12-4 8 11 12 4zm-20-28v13l8 11v-14zm16 0v13l-8 11v-14zm-21-15-8 11-12 4 7-11zm-8-24-12-4-13 4 13 4zm0 0v13l8 11v-14zm-20 28-13-4 8 11 13 4zm-5-28v13l-8 11v-14zm-16 0-12-4-13 4 13 4zm-12 39v13l7 11v-14zm28-4-8 10-13 4 8-10zm0 0v13l-8 11v-14zm-21-50-7 11-13 4 8-11zm87 63-8 11-12 4 8-11zm-8 54-12-4-13 4 13 4zm0 0v13l8 11v-13zm8 24-8 11-12 4 8-11zm0 0 13 4 8 11-13-4zm13-17 13 4-13 4-13-4zm82 56 13 4 12-4-12-4zm199-253 8-10 13-5-8 11zm0-99v-14l8 11v14zm-174-127-12-4 12-4 13 4zm13 74 8-10 13-4-8 10zm0 0v-13l8-11v14zm21 20 12 5 8 10-13-4zm-26-13 13 4-8-11-13-4zm46 289-8 11 13-4 8-11zm-79-95 13 4 12-4-12-4zm5-15 13 4 7 11-12-4zm13-9v13l7 11v-14zm41-22v-13l7 10v14zm-166-67v-14l-8 11v13zm71-29v-13l8-11v14zm-13 166 13 4 8 11-13-4zm-25 0-8 11-13 4 8-11zm13-31-13-4 13-4 12 4zm-67-8-8 11-12 4 7-11zm-153-225v-13l-8 11v13z"
			fill="#fddb00" />
		<path
			d="m307 324-13-4-8 10 13 4zm5-15v-14l-13-4v14zm15 0v-14l13-4v14zm5 15 8 10 13-4-8-10zm-12 9-8 11 8 10 7-10zm0-48 7 10 13-4-8-11zm0 0-8 10 8 11 7-11zm0 0-13-5-8 11 13 4zm0 0v-14l12-4v13zm0 0v-14l-13-4v13zm12-5 8-10 8 10-8 11zm-25 0-8 11-8-11 8-10zm25-13-12-4 7-11 13 4zm-25 0-8-11 13-4 8 11zm13-4 7-11-7-11-8 11zm-21-7-13-4 8-11 13 5zm8-10v-14l13-4v13zm0 0v-14l-13-4v13zm-21 6 8-11-8-10-8 10zm0 22-12-4-8 10 12 5zm0 0v-14l13-4v14zm0 0v-14l-12-4v14zm0 21-8-10 13-5 8 11zm0 14 8 11 13-5-8-10zm0 0-8 11 8 10 8-10zm0 0-12-4-8 10 12 5zm0 0v-14l13-4v14zm0 0v-14l-12-4v14zm-8 11 8 10-12 4-8-10zm-12-5v-13l-13 4v14zm8-24-8 11-8-11 8-11zm-8-11v-13l-13 4v14zm0 22-8-11-13 4 8 11zm-13-17-13-5-7 11 12 4zm0 0v-14l-13-4v13zm-20 6-8-11-13 5 8 10zm12 18-12-4-8 10 12 5zm0 0v-14l-12-4v14zm8 11-8 10-8-10 8-11zm-20-15v-14l-13 4v14zm-21 15v-14l-13-4v13zm-13 4-12-4-8 10 13 4zm0-9-7-10-13 4 8 11zm13 18v-13l-13 4v13zm8-38-8 11-8-11 8-10zm-21-15-7-10-13 4 8 11zm-7 25v-14l-13 4v14zm-13 4-13-4-8 10 13 5zm0 0v-14l-13-4v14zm8 11-8 10-8-10 8-11zm-21-15v-14l-12 4v14zm0-14-8-11-12 5 8 10zm-12 4-8 11-8-11 8-10zm4-15v-13l-12 4v14zm-12 5-13-5-8 11 13 4zm0 0v-14l-13-4v13zm20-29-8 11-7-11 7-10zm-20 7-8-11-13 4 8 11zm0-22v-13l-13 4v14zm-13 5-8 10-8-10 8-11zm25 0-12-5-8 11 13 4zm0 0v-14l-12-4v13zm-12-18-8-11-13 4 8 11zm-8-11v-13l-13-4v13zm16 0-8 11-8-11 8-10zm12 4-12-4-8 11 12 4zm5-14v-14l-13-4v13zm-5 6-8-11-12 5 8 10zm21-20-8 11-8-11 8-11zm12-4-7-11-13 4 8 11zm0 0 8-11-8-10-7 10zm-20-7-13-4-8 11 13 4zm0 0v-13l-13-4v13zm13-4v-13l-13 4v13zm-26 0-8-10-12 4 8 10zm26-13-13-4 8-11 12 4zm-26 0 8-11-8-11-8 11zm-8-11v-13l-12-4v13zm29-4-8-11-13 4 8 11zm-8-11v-13l-13 4v13zm0-13-8-11-13 4 8 11zm0 0 8-11-8-11-8 11zm-21 15-12-4 8-11 12 4zm-12-26-8-11-13 4 8 11zm0 22 8-11-8-11-8 11zm0 13-8-11-13 4 8 11zm-13 4-8 11-8-11 8-11zm5-15v-13l-13 4v13zm-13 4-13-4-7 11 12 4zm0 0v-13l-13-4v13zm-13-4v-13l-12 4v13zm13-9-13-4 8-11 13 4zm-13-4-7-11-13 4 8 11zm0 0 8-11-8-11-7 11zm-12 4-8 11-8-11 8-11zm5-15v-13l-13-4v13zm20-15v-13l-13 4v13zm-20 2-13-4 8-11 12 4zm-13 17-13-4-8 11 13 4zm-8 24v-13l-13-4v13zm-5 7-8-11-12 4 8 11zm-12 4-8 11-8-11 8-11zm12 4-12-4-8 11 12 4zm-8 24-12-4-8 11 13 4zm0 0v-13l-12-4v13zm13-4v-13l-13 4v13zm-5 15-8 11-7-11 7-11zm-20-15-8-10-13 4 8 10zm-13 4-8 11-8-11 8-10zm5 20v-13l-13 4v14zm8 11-8-11-13 5 8 10zm-13 4-8 11-8-11 8-10zm25 0v-13l-12-4v13zm-12 4-13-4-8 11 13 4zm12 10v-14l-12 4v14zm8 10-8-10-12 4 8 11zm-12 5-8 10-8-10 8-11zm25 0-13-5-8 11 13 4zm0 0v-14l-13-4v13zm13-5v-13l-13 4v14zm-5 15-8 11-8-11 8-10zm0-35-8 11-8-11 8-10zm12-4-7-10-13 4 8 10zm-20-6-13-4-8 10 13 4zm13-4v-14l-13-4v13zm-13-5v-13l-13 4v14zm20-20-12-4-8 11 13 4zm0 0v-13l-12-4v13zm-20 7-8-11-13 4 8 11zm8-11-8 11-8-11 8-10zm25-13-8-11-12 4 7 11zm0 13v-13l-13 4v13zm8 11-8-11-13 4 8 11zm5-7v-13l-13-4v13zm8 11-13-4-8 11 13 4zm12-25v-14l-12 4v14zm-4 14-8 11-8-11 8-10zm-8-24-13-4-8 11 13 4zm12 44v-13l-12 4v14zm-33 11v-13l-13 4v13zm-5-20-8 11-7-11 7-11zm5 28-13-4-7 11 12 4zm-8 25v-14l-12-4v13zm-33 24v-14l-13 4v14zm-13 4v-14l-12-4v14zm21 6-8-10-13 4 8 11zm-13 5-12-5-8 11 12 4zm21 6-8 11-8-11 8-11zm5-6v-14l-13-4v13zm7 10-12-4-8 11 13 4zm0-35-12-4-8 11 13 4zm13 10v-14l-13 4v14zm8 10-8 11-8-11 8-10zm-8 11-8-11-12 5 7 10zm0 14v-14l-13 4v14zm8 10-8-10-13 4 8 11zm5-6v-14l-13-4v14zm-5 15-13-4-8 10 13 4zm21 20-8 10-8-10 8-11zm-16 0v-14l-13 4v14zm-13 4-13-4-7 10 12 5zm0 0v-14l-13-4v14zm21 6-8-10-13 4 8 11zm0 0v14l-13 4v-13zm-13 5-8 10-8-10 8-11zm25 0v13l-12-4v-14zm-12 17-13-4-8 11 13 4zm20 7-8 10-7-10 7-11zm-8 10-7-10-13 4 8 11zm0 0v14l-12 4v-13zm-12 5v13l-13-4v-14zm25 0v13l-13-4v-14zm-13 9 8 11-12 4-8-11zm-12 4-8 11 8 10 8-10zm0 0-13-4-8 11 13 4zm20 15-12-4-8 10 12 5zm5 6v14l-13 4v-13zm8 3-8 11 8 11 8-11zm20-42v14l-12 4v-13zm-20-6-8 11 8 10 8-10zm0 0-13-4-8 10 13 5zm13-4 7 10-12 5-8-11zm7-11-7 11 7 10 8-10zm-7-3v14l-13-4v-14zm7-10-12-5-8 11 13 4zm-20 6-8-11-13 5 8 10zm0 0v14l-13 4v-14zm8-11-8 11-8-11 8-10zm-8-10v-14l-13 4v14zm-13 4-12-4-8 10 12 5zm0 0v-14l-12-4v14zm26 0v-14l-13-4v14zm-13-18-8-10-13 4 8 10zm33 24-8-10-12 4 7 11zm0 0v14l-13 4v-13zm8-10-8 10-8-10 8-11zm5 15v13l-13-4v-14zm0 13 8 11-13 4-8-11zm8 11-8 10 8 11 7-11zm-13 4-13-4-8 10 13 5zm5 6v14l-13 4v-13zm28-39v14l-13 4v-13zm-20-6-8 11 8 10 7-10zm0 0-13-4-8 10 13 5zm0 0v-14l-13-4v14zm12-4 8 10-13 5-7-11zm0 0v-14l-12 4v14zm0-14-8-10-12 4 8 10zm21 29v13l-13-4v-14zm0-22-8 11 8 11 8-11zm0 0-13-4-8 11 13 4zm0 0v-13l-13-4v13zm20 7v-14l-12 4v14zm-8 10 8 11-12 4-8-10zm21-6 8 11 13-5-8-10zm0 0-8 11 8 10 8-10zm0 0-13-4-8 10 13 5zm0 0v-14l13-4v14zm0 0v-14l-13-4v14zm8 11v13l13-4v-14zm-8 10v14l-13-4v-14zm-13-4v14l-12 4v-14zm13 18 8 10-13 5-8-11zm-13 4-8 11 8 10 8-10zm0 0-12-4-8 10 12 5zm21 6v14l-13 4v-13zm-41-21-8 11 8 10 8-10zm0 0-13-4-8 11 13 4zm0 21v14l-13 4v-13zm-13 5v13l-13-4v-14zm5-15 8 10-13 5-8-11zm20 15v13l-12-4v-14zm-12 9 8 11-13 4-8-11zm-13 4-8 11 8 10 8-10zm0 0-13-4-7 11 12 4zm33 11-12-4-8 10 12 4zm-8 10v14l-12 4v-13zm21-6v13l-13-4v-13zm-13 9-8 11 8 11 8-11zm-8 11 8 11-12 4-8-11zm29 4-13-4-8 11 13 4zm13-4-8 11 8 10 7-10zm-21 15v13l-13-4v-13zm21-29v14l-13 4v-13zm0 0v14l12 4v-13zm-8-10 8 10-13 5-8-11zm15 0 13 4-8 11-12-5zm13 4v13l13-4v-13zm-8 24 8 11 13-4-8-11zm8 11v13l13-4v-13zm13-26-8 11 8 11 8-11zm8 11 12 4-8 11-12-4zm-8-24 8 10 12-4-8-10zm8 10v14l12 4v-13zm0-34v13l12-4v-14zm12-5v14l13 4v-13zm-20-6 8 11 12-5-8-10zm0 0-8 11 8 10 8-10zm-13-4 13 4-8 11-13-5zm-8 10v14l13 4v-13zm8-24v14l13-4v-14zm13-4v14l12 4v-14zm-21-6v13l-12-4v-14zm29-5 12 5-8 10-12-4zm-21-6 8 11 13-5-8-10zm0 0-8 11 8 10 8-10zm0 0-13-4-7 10 12 5zm0 0v-14l13-4v14zm0 0v-14l-13-4v14zm13-4v-14l12 4v14zm8-24 12 4-8 10-12-4zm12 39v13l13-4v-14zm0-22 8 11 13-4-8-11zm0 0-8 11 8 11 8-11zm0 0v-13l13-4v13zm21 7 12 4-7 11-13-5zm0 0v-14l12 4v14zm-8 10v14l13 4v-13zm20-6 8 11 13-5-8-10zm0 0-7 11 7 10 8-10zm0 0v-14l13-4v14zm-12-18 12 4 8-10-12-4zm-8-10 8-11 8 11-8 10zm41 0v-14l13-4v13zm13-5 12 5 8-11-13-4zm0 9 7 10 13-4-8-10zm-13 9v-13l13 4v13zm-8-38 8-10 8 10-8 11zm8-10 8 10 12-4-7-11zm0 0v-14l13-4v13zm13-5 12 5 8-11-13-4zm-26 0v-13l13 4v14zm-8-24 8 11 13-4-8-11zm13-4 13 4 8-10-13-5zm-20-6 7-11 8 11-8 10zm15 0v-14l13-4v13zm-15 34 7-10 8 10-8 11zm-13 5 8 10 12-4-7-11zm0 0v-14l13-4v13zm20 6 13 4 8-10-13-5zm0 14v-14l13 4v14zm-12 4 8 11 12-5-8-10zm0 0v-14l12-4v14zm-21-29v-13l13 4v14zm0 22 13 4 8-11-13-4zm-8-11 8-11 8 11-8 11zm8 24v-13l13 4v14zm-20-6 8 11 12-5-8-10zm0 0-8 11 8 10 8-10zm0 0-13-4-8 10 13 5zm0 0v-14l12-4v14zm0 0v-14l-13-4v14zm0-14-13-4 8-11 13 5zm0-21 8 11 12-5-8-10zm0 0v-14l12-4v14zm0 0v-14l-13-4v14zm-13-18-8-10 13-5 8 11zm13-4 8-11-8-10-8 10zm-21-6v-14l13-4v13zm0 0v-14l-12-4v13zm-12-18 7-11-7-10-8 10zm-13 4-8-11 13-4 8 11zm5-15-13-4 8-11 13 5zm15 0-7-10 12-5 8 11zm5 15-12-4 7-11 13 4zm21-15v-13l-13-4v13zm8-10v-14l12-4v13zm4 14-12-4 8-10 12 4zm-12-17 8-11-8-11-8 11zm-8-11-13-4 8-11 13 4zm16 0-8-11 12-4 8 11zm-41 0 7-11-7-10-8 10zm0 14v-14l12-4v13zm0 0v-14l-13-4v13zm-26-14-8-11 13-4 8 11zm-8 11 8-11-8-11-8 11zm-8-11-12-4 8-11 12 4zm8 24v-13l13-4v13zm-12 4-8-10 12-4 8 10zm4-14v-14l-12-4v13zm-12 39-13-5-8 11 13 4zm0 0v-14l12-4v13zm0 0v-14l-13-4v13zm8 10-8-10 12-5 8 11zm0 0-8 11-8-11 8-10zm-21-15v-13l-13 4v14zm13-9-13-4 8-11 13 4zm-13-4-8-11-12 4 7 11zm0 0 8-11-8-10-8 10zm-8-11v-13l-12-4v13zm8-10v-14l13-4v13zm0-14-8-11 13-4 8 11zm13-4 8-11-8-10-8 10zm-21-7v-13l13-4v13zm0 0v-13l-12-4v13zm0 22-12-4 7-11 13 4zm-12-26v-13l-13 4v13zm0 22-8-11-13 4 8 11zm0 0 7-11-7-11-8 11zm0 13v-13l-13 4v13zm-13 4-8 11-8-11 8-10zm-8-10-13-5-7 11 12 4zm0 0v-14l-13-4v13zm0 21-8-11-12 4 7 11zm21-7-13-4-8 11 13 4zm7 25-7 10-8-10 8-11zm-15 0v-14l-13-4v13zm8 10-13-4-8 11 13 4zm-21-15v-13l-13 4v14zm-13 5-12-5-8 11 13 4zm0 0v-14l-12-4v13zm21 6-8-11-13 5 8 10zm-13 4-8 11-7-11 7-10zm18 24v-13l-13 4v14zm-13 5-13-5-7 11 12 4zm0 0v-14l-13-4v13zm28-5-7 11-8-11 8-10zm26-13-8-11-13 4 8 11zm-87-15-8-11-13 5 8 10zm13 18v-14l-13 4v14zm-13 4-13-4-8 10 13 5zm0 0v-14l-13-4v14zm8 11-8 10-8-10 8-11zm-16-44v-13l-13 4v14zm16 0-8 11-8-11 8-10zm12-39v-13l-12 4v14zm13-9-13-4 8-11 13 4zm0-21v-14l-13-4v14zm21-7-8-11-13 4 8 11zm0 0 7-11-7-11-8 11zm-8-11-13-4 8-11 13 4zm-13-4v-13l-13 4v13zm-20-7v-13l-13-4v13zm7-2 8-11-8-11-7 11zm-7-11-13-4 8-11 12 4zm28-4-8-11-13 4 8 11zm-8-11v-13l-13-4v13zm-13-4v-13l-12 4v13zm0-13-7-11-13 4 8 11zm-20-7 8-11-8-11-8 11zm-8-11v-13l-13-4v13zm0 22-13-4 8-11 13 4zm-5-15-8-11-12 4 8 11zm-8-11v-13l-12 4v13zm-12 26 8-11-8-11-8 11zm12 9v-13l-12 4v13zm13 4v-13l-13-4v13zm-33-24-13-4 8-11 13 4zm8-11v-13l-13-4v13zm-8 24v-13l-13-4v13zm13-52 7 11-12 4-8-11zm20 15-13-4 8-11 13 4zm21-15v-13l-13-4v13zm7 11-7-11-13 4 8 11zm0 0 8-11-8-11-7 11zm8-11-8-11 13-4 8 11zm5 15-13-4 8-11 13 4zm-13 9v-13l-12 4v13zm13 4v-13l13-4v13zm0 0v-13l-13-4v13zm8 11-8-11 13-4 8 11zm-16 0-12-4 7-11 13 4zm8 11 8-11-8-11-8 11zm21-15 7-11-7-11-8 11zm-13 17v-13l13-4v13zm25 0v-13l-12-4v13zm-5 15-7-11 12-4 8 11zm-15 0-13-4 8-11 13 4zm8 11 7-11-7-11-8 11zm0 13v-13l12-4v13zm0 0v-13l-13-4v13zm7 11-7-11 12-4 8 11zm5 15-12-4 7-11 13 4zm41 13v-13l13-4v13zm0 0v-13l-12-4v13zm0-13-8-11 13-4 8 11zm13-4 8-11-8-11-8 11zm-8-11-13-4 8-11 13 4zm8-11v-13l13-4v13zm0 0v-13l-13-4v13zm-25 0v-13l12-4v13zm12-17 8-11-8-11-8 11zm-12 4-8-11 12-4 8 11zm4-15v-13l-12-4v13zm21 15-13-4 8-11 13 4zm8-11-8-11 13-4 8 11zm5-15v-13l-13-4v13zm-26 0v-13l13-4v13zm0-13 8-11-8-11-8 11zm-8-11v-13l-12-4v13zm16 0-8-11 13-4 8 11zm-16 22-12-4 8-11 12 4zm-17-11-8-11 13-4 8 11zm-8 11 8-11-8-11-8 11zm0 13v-13l13-4v13zm5 15-13-4 8-11 13 4zm8 11 8-11-8-11-8 11zm-8 2v-13l-13-4v13zm-13-52-12-4 7-11 13 4zm8-11v-13l13-4v13zm0 0v-13l-13-4v13zm0-13-8-11 13-4 8 11zm13-4 8-11-8-11-8 11zm-41-22v-13l-13-4v13zm15 0v-13l13-4v13zm-7-2 7-11-7-11-8 11zm7-11-7-11 12-4 8 11zm26 0 8-11-8-11-8 11zm8-11-8-11 12-4 8 11zm33 11-8-11 13-4 7 11zm-16 0-13-4 8-11 13 4zm8-24v13l13-4v-13zm0 35 8-11-8-11-8 11zm0 13v-13l-13-4v13zm8-11v-13l12-4v13zm5 15-13-4 8-11 13 4zm-26 13v-13l13-4v13zm34 11v-13l12-4v13zm0 0v-13l-13-4v13zm7 11-7-11 12-4 8 11zm-15 0-13-4 8-11 13 4zm8-24 7-11-7-11-8 11zm7-11-7-11 12-4 8 11zm13-4v-13l13-4v13zm-8-11v-13l-13-4v13zm0-13-13-4 8-11 13 4zm8 11 8-11-8-11-8 11zm-21-15 8-11-8-11-7 11zm21-20v13l-13-4v-13zm8 24-8-11 13-4 8 11zm25 0 8-11-8-11-8 11zm0 13v-13l13-4v13zm0 0v-13l-12-4v13zm8 11-8-11 13-4 8 11zm-16 0-12-4 8-11 12 4zm8 11 8-11-8-11-8 11zm-12 4-8-11 12-4 8 11zm25 0-13-4 8-11 13 4zm-25 13v-13l12-4v13zm25 0v-13l13-4v13zm0 0v-13l-13-4v13zm8 11-8-11 13-4 7 11zm-16 0-13-4 8-11 13 4zm8 11 8-11-8-11-8 11zm0 13v-13l-13-4v13zm8-11v-13l12-4v13zm5 15-13-4 8-11 12 4zm-38-4v-13l12-4v13zm-8-11v-13l-13-4v13zm0 22 8-11-8-11-8 11zm8-24-8-11 12-4 8 11zm-8-11 8-11-8-11-8 11zm-8-11-13-4 8-11 13 4zm-18 24v-13l13-4v13zm5 15-12-4 7-11 13 4zm8 11-8-11 13-4 8 11zm0 13v-13l13-4v13zm0 0v-13l-13-4v13zm8 11-8-11 13-4 8 11zm-16 0-12-4 7-11 13 4zm-25 0-8-11 13-4 8 11zm13-17 7-11-7-11-8 11zm0 35v-14l12-4v14zm0 0v-14l-13-4v14zm7 10-7-10 12-4 8 10zm-15 0-13-4 8-10 13 4zm28-17 8-11-8-11-8 11zm13 4-13-4 8-11 13 4zm0 13v-13l12-4v13zm0 0v-13l-13-4v13zm20 7 8-11-8-10-8 10zm-8-46v-13l-12-4v13zm16 0v-13l13-4v13zm-8-2 8-11-8-11-8 11zm-8-11-12-4 8-11 12 4zm16 0-8-11 13-4 8 11zm18 24-13-4 8-11 12 4zm-5 15-8-11 13-4 7 11zm12-4 8-11-8-11-7 11zm0 0 13 4 8-11-13-4zm-12 17v-13l12-4v13zm0 0v-13l-13-4v13zm12-4v-13l13 4v13zm-20 15-13-4 8-11 13 4zm8 11-8-11 13-4 7 11zm-8 3v-14l-13-4v13zm8 10v-13l12-4v13zm-8 11 8-11-8-10-8 10zm0 0 13 4 7-11-12-4zm-13 4-8-11 13-4 8 11zm13 9v-13l13 4v14zm-13 5 8 10 13-4-8-11zm0 0v-14l13-4v13zm0 0v-14l-12-4v13zm-8 10 8-10 8 10-8 11zm0 0-12-4 8-11 12 5zm8 11 13 4 8-11-13-4zm33-46 8 11 13-4-8-11zm13-4 8-10 8 10-8 11zm8 11 13 4 7-11-12-4zm0 13v-13l13 4v14zm13 5 7 10 13-4-8-11zm0 0v-14l12-4v13zm12-5 8-10 8 10-8 11zm-20 15 8-10 7 10-7 11zm28-4 13 4 8-10-13-5zm-13 18v-14l13 4v14zm13 4 8 11 13-5-8-10zm0 0v-14l13-4v14zm-8 11 8-11 8 11-8 10zm21 6 12 4 8-10-12-5zm-13 18 8 11 13-5-8-10zm0 0v-14l13-4v14zm13-4v-14l12 4v14zm-21 15 8-11 8 11-8 10zm-5-15v-14l13 4v14zm13 25 13 4 8-10-13-4zm0 14v-14l13 4v14zm-13 4v-14l13-4v14zm5 6 8-10 8 10-8 11zm21-6 8 11 12-5-8-10zm0 0v-14l12-4v14zm12-4 8-11 8 11-8 10zm-4 15v13l12-4v-14zm12-5 13 5 8-11-13-4zm0 0v14l13 4v-13zm-20 29 8-11 7 11-7 10zm20-7 8 11 13-4-8-11zm0 22v13l13-4v-14zm13-5 8-10 8 10-8 11zm-25 0 12 5 8-11-13-4zm0 0v14l12 4v-13zm12 18 8 11 13-4-8-11zm0 0-8 11 8 10 8-10zm8 11v13l13 4v-13zm-20-15 12 4-8 11-12-4zm-13 25v14l13 4v-13zm5-6 8 11 12-5-8-10zm-13 9-8 11 8 11 8-11zm8-37v13l13-4v-14zm-8-11 8 11 13-5-8-10zm0 0-8 11 8 10 8-10zm-13-4 13 4-8 11-12-5zm-7-11-8 11 8 10 7-10zm0 21v14l12 4v-13zm7-24v14l13-4v-14zm13-4 13 4 8-10-13-5zm0 0v14l13 4v-14zm-20-6 7 10 13-4-8-11zm-13-5 13 5 7-11-12-4zm0 0v14l13 4v-13zm-13 5v13l13-4v-14zm5-15 8-11 8 11-8 10zm-5 28 13 4-8 11-13-4zm-8 11-7 10 7 11 8-11zm13 4 8 11 13-5-8-10zm8 11v13l13-4v-14zm-13-5v14l13 4v-13zm13 18 8 11 12-4-7-11zm0 0-8 11 8 10 8-10zm8 11 12 4-7 11-13-5zm-21-15 13 4-8 11-13-4zm-20 15v13l12 4v-13zm-8-24v13l13-4v-14zm0 13 8 11 12-4-7-11zm0 0-8 11 8 10 8-10zm-13-4 13 4-8 11-13-4zm0 30v13l13-4v-14zm0 13 8 11 13-4-8-11zm0 0-8 11 8 10 8-10zm21 7v13l12 4v-13zm0-22 12 4-7 11-13-4zm12 26v13l13-4v-13zm0-22 8 11 13-4-8-11zm0 0-7 11 7 11 8-11zm0-13v13l13-4v-13zm21 20 13 4-8 11-13-4zm13 4 7 11 13-4-8-11zm0 0-8 11 8 10 7-10zm-13-18v14l13 4v-13zm13 5v13l12-4v-14zm7 24v13l13-4v-13zm-20 6v14l13 4v-14zm0 22v13l13-4v-13zm20 7v13l13 4v-13zm0-22 13 4-8 11-12-4zm5 15 8 11 13-4-8-11zm-12 9-8 11 8 11 7-11zm7 11 13 4-8 11-12-4zm-28 4 8 11 13-4-8-11zm8 11v13l13 4v-13zm13 4v13l12-4v-13zm20-15 8 11 13-4-8-11zm0 0-8 11 8 11 8-11zm-20 28 7 11 13-4-8-11zm20 7-8 11 8 11 8-11zm8 11v13l13 4v-13zm0-22 13 4-8 11-13-4zm5 15 8 11 12-4-8-11zm8 11v13l12-4v-13zm12-26-8 11 8 11 8-11zm-12-9v13l12-4v-13zm12-4 8 11 13-4-8-11zm-25 0v13l13 4v-13zm13-26 12 4-8 11-12-4zm-21 2v13l13-4v-13zm21-15v13l12 4v-13zm-8-11-8 11 8 11 8-11zm20 15 8 11 13-4-8-11zm-12-18v14l12-4v-14zm-8-10 8 10 12-4-8-10zm-13-4v13l13 4v-13zm8-11 13 4-8 11-13-4zm25 0-8 11 8 10 8-10zm-12-9v13l12-4v-14zm20 20v13l13 4v-13zm0-22 13 4-8 11-13-4zm5 15 8 11 13-4-8-11zm8 11v13l13-4v-13zm13-26-8 11 8 11 7-11zm-13-9v13l13-4v-13zm13-4 7 10 13-4-8-10zm12-4 8-11 8 11-8 10zm-5 14v14l13 4v-13zm-20-14 13 4 7-11-12-4zm8-25v14l12 4v-13zm12 5v13l13-4v-14zm13-5 13 5 8-11-13-4zm0 0v14l13 4v-13zm-20-6 7 11 13-5-8-10zm12-4 8-11 8 11-8 10zm-12-4 12 4 8-11-13-4zm-13-10v14l13-4v-14zm20-15v14l13 4v-13zm-7-10 12 4 8-11-13-4zm20 15 8 10 13-4-8-11zm13-5 12 5 8-11-12-4zm-21-6 8-11 8 11-8 11zm16 21v14l13-4v-14zm0-21v-14l13-4v14zm13-4v-14l12 4v14zm0-14 12 4 8-10-13-5zm-21-6 8 10 13-4-8-11zm13-5 8-10 7 10-7 11zm-26 0v-13l13-4v13zm13-4 13 4 8-10-13-4zm-13 18v-14l13 5v13zm-7-38 7 11 13-4-8-11zm12-4 8-11 8 11-8 11zm-5-6v-14l13-4v13zm-20 6 13 4 7-10-12-5zm-8-11 8-10 8 10-8 11zm8 25v-14l13 4v14zm-13 4v-14l13-4v14zm5 6 13 4 8-10-13-4zm13 4 8-10 7 10-7 11zm-13 5 8 10 13-4-8-11zm8 24 8 11 12-5-7-10zm0 0v-14l13-4v14zm-8 11 8-11 8 11-8 10zm-5-15v-14l13 4v14zm-16-49 8-10 8 10-8 11zm8-10 8 10 13-4-8-11zm0 0v-14l13-4v13zm-12-5v-13l12 4v14zm12-17 13 4 8-11-13-4zm-20-7 8-10 7 10-7 11zm8-10 7 10 13-4-8-11zm0 0v-14l12-4v13zm12-5v-13l13 4v14zm-25 0v-13l13 4v14zm25-13 13 4 8-11-13-4zm-20-7 8 11 12-4-8-11zm0-8 12 4 8-10-12-5zm-5-6v-14l13-4v13zm-16-14 8-11 8 11-8 11zm8-11 8 11 13-4-8-11zm0 0v-13l13-4v13zm13-4 12 4 8-10-12-4zm-26 0v-13l13 4v13zm26-13 8-11-8-11-8 11zm-26 0-7-11 12-4 8 11zm5-15 13 4 8-11-13-4zm-5-7v-13l13-4v13zm-20 7v-13l13 4v13zm13-9 7-11-7-11-8 11zm7-11-7-11 12-4 8 11zm-28-4 13 4 8-11-13-4zm-13 4 8-11-8-11-7 11zm21-15v-13l13-4v13zm-21 28v-13l13-4v13zm0 0v-13l-12-4v13zm8 11-8-11 13-4 8 11zm0-35-8-11 13-4 8 11zm26-8v-13l12 4v13zm-21-7v-13l-13-4v13zm8-2 8-11-8-11-8 11zm13-4 12 4 8-11-13-4zm-21-7-13-4 8-11 13 4zm16 0-8-11 13-4 7 11zm-8-11v-13l13-4v13zm0 0v-13l-13-4v13zm13-4v-13l12 4v13zm-13-9-8-11 13-4 8 11zm13-4 7-11-7-11-8 11zm0 0 12 4 8-11-13-4zm-41-22v-13l-13-4v13zm15 0v-13l13-4v13zm-8-2 8-11-8-11-7 11zm-7-11-13-4 8-11 12 4zm-34-11-12-4 8-11 12 4zm75 24v-13l-13-4v13zm7 11v-13l13-4v13zm-15 0-13-4 8-11 13 4zm28-4v-13l13 4v13zm8 19-8-11 13-4 8 11zm20-15 13 4-8 11-12-4zm-7 24v-13l12 4v13zm-13 4v-13l13-4v13zm5 7 12 4 8-11-12-4zm20-7v-13l13-4v13zm8 11-8-11 13-4 8 11zm-8 11 8-11-8-11-8 11zm0 13 13 4 8-11-13-4zm8-11v-13l13-4v13zm-20 7v-13l12 4v13zm-13 4v-13l13-4v13zm-8 11 8-11-8-11-8 11zm0 0 13 4 8-11-13-4zm8-24-8-11 13-4 8 11zm-8-11 8-11-8-11-8 11zm0 48v-13l13 4v13zm21 15v-13l12-4v13zm12-4 13 4 8-11-13-4zm0 8 8 11 13-4-8-11zm-12 10v-14l12 4v14zm0-27-8-11 12-4 8 11zm12-4 8-11-8-11-8 11zm8 45v-13l13-4v13zm-16 0 8-10 8 10-8 11zm8 11 8 11 13-4-8-11zm13-4 13 4 8-11-13-4zm-5 28v-13l13-4v13zm-16 0 8-10 8 10-8 11zm-4-15v-13l12 4v14zm33 11v-13l13 4v13zm0 8 8 11 12-4-7-11zm13-4 12 4 8-10-13-4zm-5 29v-14l12-4v13zm-16 0 8-11 8 11-8 10zm21 6 12 4 8-10-13-5zm0 8 7 11 13-4-8-11zm-13 10v-14l13 4v14zm25-14 8-10 8 10-8 11zm8 24 13 5 8-11-13-4zm8-10v-14l13 4v14zm5 15 8 10 12-4-8-11zm12-5 8-10 8 10-8 11zm-4-6v-14l12-4v14zm12-18 8 11 13-4-8-11zm13-4 13 4 7-10-12-5zm-21-6 8-11 8 11-8 10zm16 0v-14l13-4v13zm-28-5 12 5 8-11-12-4zm-13 5 8 10 13-4-8-11zm0 0v-14l13-4v13zm21-15v-14l12 4v14zm0-14v-13l12-4v13zm12-4 13 4 8-10-13-5zm0 8 8 11 13-4-8-11zm-20-28 8-11 7 11-7 11zm8-11 7 11 13-4-8-11zm0 0v-13l12-4v13zm12-4 13 4 8-10-13-4zm-25 0v-13l13 4v13zm5-20 8 11 12-4-8-11zm0-8 12 4 8-11-12-4zm-5-7v-13l13-4v13zm-16-13 8-11 8 11-8 11zm8-11 8 11 13-4-8-11zm-13-4v-13l13-4v13zm-7 11 7-11-7-11-8 11zm0 0 12 4 8-11-13-4zm7-24-7-11 12-4 8 11zm-12-26-8 11-8-11 8-11zm-8 24v-13l13 4v13zm0 30-8-11 13-4 8 11zm13 9v-13l12 4v13zm-13 4 8 11 12-4-7-11zm0 0v-13l13-4v13zm-8 11 8-11 8 11-8 11zm-5-15v-13l13 4v13zm13 26 13 4 7-11-12-4zm0 13v-13l13 4v13zm13 4 7 11 13-4-8-11zm0 0v-13l12-4v13zm12-4 8-10 8 10-8 11zm-20 15 8-11 7 11-7 11zm28-4 13 4 8-11-13-4zm-13 18v-14l13-4v13zm13-5v-13l13 4v14zm0 9 8 10 13-4-8-10zm-8 10 8-10 8 10-8 11zm33-67 8-11 8 11-8 11zm21 28 8-10 8 10-8 11zm20 20 8 11-12 4-8-10zm-20 15 8-10 8 10-8 11zm-5-15v-13l13 4v14zm13 26 12 4 8-11-12-4zm0 13v-13l12 4v14zm25 0v-13l-13 4v14zm-20 15 7-10 8 10-8 11zm7 24 13 5 8-11-13-4zm-12 5 8 10 12-4-8-11zm0 0v-14l12-4v13zm20-15v-14l13 4v14zm0 35v-14l13 4v14zm-12 4v-14l12-4v14zm4 6 13 4 8-10-13-4zm0 9 8 10 13-4-8-11zm-20-29 8-10 8 10-8 11zm-13-4 13 4 8-10-13-5zm8-11v-13l13 4v14zm-8 25v-14l13 4v14zm-12 4 7 10 13-4-8-10zm0 0v-14l12-4v14zm-13-4v-14l13 4v14zm54 39v-14l12 4v14zm-16 0 8-11 8 11-8 10zm-13 4 8 11 13-5-8-10zm0 0v-14l13-4v14zm21 6 12 5 8-11-12-4zm0 0v14l12 4v-13zm-13 5v13l13-4v-14zm25 0 8 10 13-4-8-11zm-7 24 7-11 8 11-8 10zm-13 4 8 11 12-5-7-10zm8 11v13l12-4v-14zm25 0v13l-13-4v-14zm-25 13 8 11 12-4-8-11zm12 26-12-5 8-10 12 4zm-25 0v13l13-4v-14zm5-15 8-11 8 11-8 10zm0 35 8-11 8 11-8 10zm-13 4 8 10 13-4-8-10zm0 13-8 11 8 11 8-11zm-20 15 8 11 12-4-8-11zm8-19 12 4-8 11-12-4zm0-13 12 4 8-11-13-4zm0 0v13l12 4v-13zm-13 4v13l13-4v-13zm5-15 8-11 7 11-7 11zm8-24v13l12 4v-13zm12-4 13 4 8-11-13-4zm0 8 8 11 13-5-8-10zm-12-18v14l12-4v-14zm-8-10 8 10 12-4-8-11zm12-5 8-10 8 10-8 11zm8-10 13 4 8-11-13-4zm-12-18v14l12 4v-14zm4-6 8-11 8 11-8 10zm16 34v14l13 4v-13zm-41 35 13 4 8-10-13-4zm0 9v13l13-4v-14zm0 13 8 11 13-4-8-11zm0 0-8 11 8 10 8-10zm-13-4 13 4-8 11-12-4zm-7 11v13l12 4v-13zm-13 17 8 11 12-4-7-11zm0 0-8 11 8 11 8-11zm8 11 12 4-7 11-13-4zm-8 11v13l13 4v-13zm13 4v13l12-4v-13zm0 13 7 11 13-4-8-11zm0 0-8 11 8 11 7-11zm7 11v13l13 4v-13zm-20-15 13 4-8 11-13-4zm-13 26v13l13 4v-13zm13 4v13l13-4v-13zm20-2 13 4-8 11-12-4zm21-28 13 4-8 11-13-4zm-8-11-8 11 8 11 8-11zm8-2v13l13 4v-13zm-33 67-8 11-8-11 8-11zm-21-15 13 4-8 11-13-4zm-8 11v13l13 4v-13zm-5 28-7-11 12-4 8 11zm-20-15 13 4-8 11-13-4zm-21 15v13l13 4v-13zm-7-11 7 11 13-4-8-11zm0 0-8 11 8 11 7-11zm-13-4 13 4-8 11-13-4zm13-9v13l12-4v-13zm-13-4v13l13 4v-13zm-13 4v13l13-4v-13zm21-15 12 4-7 11-13-4zm-8-11-8 11 8 11 8-11zm-21 15 8 11 13-4-8-11zm0 0-7 11 7 11 8-11zm0-13v13l13-4v-13zm-12-4v13l12 4v-13zm20-15 13 4-8 11-13-4zm-8-11-7 11 7 11 8-11zm0-13v13l13 4v-13zm-12 4v13l12-4v-13zm20-15 13 4-8 11-13-4zm-8-11 8 11 13-4-8-11zm0 0-7 11 7 11 8-11zm-12-4 12 4-7 11-13-4zm-13 26v13l13 4v-13zm5-7 8 11 12-4-7-11zm-13 9-8 11 8 11 8-11zm8-37v13l13-4v-13zm-28-4v13l12 4v-13zm-13 17 8 11 13-4-8-11zm0 0-8 11 8 11 8-11zm8 11 13 4-8 11-13-4zm-16 0 8 11-13 4-7-11zm8 11v13l-13 4v-13zm0 0v13l13 4v-13zm-20-29v14l-13 4v-14zm0 0v14l12 4v-14zm-8-10 8 10-13 4-8-10zm15 0 13 4-8 10-12-4zm-20 28 13 4-8 11-13-4zm-8-11-8 11 8 11 8-11zm0 0-13-4-8 11 13 4zm0 22v13l-13 4v-13zm0 0v13l13 4v-13zm-13 4v13l-12-4v-13zm5-15 8 11-13 4-8-11zm8 24 8 11-13 4-8-11zm-13 4-8 11 8 11 8-11zm0 0-12-4-8 11 12 4zm21 7 13 4-8 11-13-4zm13-18-8 11 8 11 7-11zm20 7 13 4-8 11-13-4zm-8 11 8 11-13 4-7-11zm21-7 8 11 12-4-8-11zm0 0-8 11 8 11 8-11zm8 11v13l12 4v-13zm-8-24v13l12-4v-13zm0 35v13l-13 4v-13zm0 13-8 11 8 11 8-11zm8 11v13l12 4v-13zm0-22 12 4-8 11-12-4zm-16 22 8 11-13 4-8-11zm20-7 8 11 13-4-8-11zm8 11v13l13-4v-13zm13-26-8 11 8 11 8-11zm-13-9v13l13-4v-13zm13-4 8 11 12-4-7-11zm-5-15 13 4-8 11-13-4zm13 39 12 4-7 11-13-4zm-8 11v13l13 4v-13zm-13 17 8 11 13-4-8-11zm0 0-8 11 8 11 8-11zm41 22v13l13 4v-13zm5-7 8 11 13-4-8-11zm-13 9-7 11 7 11 8-11zm-20 15 8 11 12-4-7-11zm-13-4-8 11 8 11 8-11zm-8 11 8 11-12 4-8-11zm-33-11 8 11-13 4-7-11zm16 0 13 4-8 11-13-4zm-8 24v-13l-13 4v13zm0-35-8 11 8 11 8-11zm0-13v13l13 4v-13zm-8 11v13l-12 4v-13zm-5-15 13 4-8 11-12-4zm26-13v13l-13 4v-13zm-33-11v13l-13 4v-13zm0 0v13l12 4v-13zm-8-11 8 11-13 4-8-11zm15 0 13 4-8 11-12-4zm-7 24-8 11 8 11 7-11zm-8 11 8 11-13 4-8-11zm-13 4v13l-13 4v-13zm8 11v13l13 4v-13zm0 13 13 4-8 11-13-4zm-8-11-8 11 8 11 8-11zm21 15-8 11 8 11 7-11zm-21 20v-13l13 4v13zm-8-24 8 11-13 4-8-11zm-25 0-8 11 8 11 8-11zm0-13v13l-13 4v-13zm0 0v13l12 4v-13zm-13 4v13l-13-4v-13zm5-15 8 11-13 4-8-11zm16 0 12 4-8 11-12-4zm-8-11-8 11 8 11 8-11zm0 0-13-4-8 11 13 4zm12-4 8 11-12 4-8-11zm-12-9v13l-13-4v-13zm12-4v13l-12 4v-13zm-4-7-13-4-8 11 13 4zm-21 7v13l-13 4v-13zm-8-11 8 11-13 4-7-11zm8-11-8 11 8 11 8-11zm0-13-13-4-7 11 12 4zm-8 11v13l-12 4v-13zm21-7v13l-13-4v-13zm-33-19-8 11 8 11 7-11zm-8 11 8 11-13 4-8-11zm-13 4v13l-13 4v-13zm-13 4v13l-12-4v-13zm21-15-13-4-8 11 13 4zm-8 24-8 11 8 11 8-11zm-13 4-12-4-8 11 13 4zm5 7 8 11-13 4-7-11zm8 11v13l-13 4v-13zm-13 4v13l-12-4v-13zm26 0v13l-13-4v-13zm-13 9 8 11-13 4-8-11zm-13 4-7 11 7 11 8-11zm0 0-12-4-8 11 13 4zm21 15-13-4-8 11 13 4zm5 7v13l-13 4v-13zm8 2-8 11 8 11 7-11zm20 15-13-4-7 11 12 4zm21 7 12 4-8 11-12-4zm-62-20v13l-13-4v-13zm-20-15v13l-13 4v-13zm-13 4v13l-13-4v-13zm-8-19 8 11-13 4-8-11zm-20 15-13-4 8-11 12 4zm7-24v13l-12-4v-13zm13-4v13l-13 4v-13zm-5-7-12-4-8 11 12 4zm-20 7v13l-13 4v-13zm-8-11 8 11-13 4-8-11zm8-11-8 11 8 11 8-11zm0-13-13-4-8 11 13 4zm-8 11v13l-13 4v-13zm20-7v13l-12-4v-13zm-33-19 8 11-13 4-8-11zm-20 15v13l-13 4v-13zm20 15v13l-13-4v-13zm-20-2 7 11-12 4-8-11zm12 26 8-11 8 11-8 11zm-33-54 8 11-13 4-8-11zm0-13v13l-13 4v-13zm-5-7-12-4-8 11 12 4zm-20-15-8 11 8 11 8-11zm12-4 8 11-12 4-8-11zm-12-9-13-4-8 10 13 4zm12-4-7-11-13 4 8 11zm0 0v13l-12 4v-13zm-25 0-8 10-8-10 8-11zm-20-20-8-11 12-4 8 10zm20-15-8 10-8-10 8-11zm5 15v13l-13-4v-14zm8-11-13-4-8 10 13 5zm12-4v13l-12 4v-13zm8 24-8 11-7-11 7-11zm13 4-8 11 8 10 8-10zm0 0-13-4-8 11 13 4zm0-22-8-10-13 4 8 10zm0 9v13l-13-4v-14zm13-5v14l-13 4v-13zm7-10-12-4-8 10 13 4zm-7 24 7 11-12 4-8-11zm7 11v13l-12 4v-13zm0-22-7 11 7 11 8-11zm26 0 8 11-13 4-8-11zm-5 15-13-4-8 11 13 4zm-8-24v13l-13-4v-13zm13-4v13l-13 4v-13zm-13-4-8-11-12 4 7 11zm-8-25v14l-12 4v-13zm16 0-8 11-8-11 8-10zm-21-6-12-4-8 10 13 5zm0-8-7-11-13 4 8 11zm13-10v14l-13-4v-14zm-20-15v14l-13 4v-13zm-13 5-13-5-8 11 13 4zm20-15-7-11-13 4 8 11zm-12 39-8 10-8-10 8-11zm-8 10-8-10-13 4 8 11zm0 0v14l-13 4v-13zm-8-24v14l-13-4v-14zm-13-4v14l-12 4v-14zm8-11-8-10-12 4 8 11zm-12 5-8 10-8-10 8-11zm4-15v-14l-12 4v14zm-12 4-13-4-8 10 13 5zm0 0v-14l-13-4v14zm25 0v-14l-13-4v14zm-13-18-7-10-13 4 8 10zm8-10-8 10-7-10 7-11zm13 4-13-4-8 10 13 4zm13-4v-14l-13-4v13zm0 13v-13l-13 4v13zm-5 15-8 11-8-11 8-11zm-8-33-8-10-13 4 8 11zm-8-10v-14l-13 4v14zm-13 4-12-4-8 10 13 5zm0 0v-14l-12-4v14zm-12-4v-14l-13 4v14zm0-14-8-11-13 5 8 10zm-13 4-8 11-8-11 8-10zm5-15v-13l-13 4v14zm16 0-8 11-8-11 8-10zm-8-24-13-4-8 11 13 4zm-8-10v-14l-13-4v13zm-5 6-8-11-12 5 7 10zm-13 4-7 11-8-11 8-10zm5-15v-13l-12 4v14zm-12 39-8-10-13 4 8 11zm-8-10v-14l-13 4v14zm20 15-12-5-8 11 12 4zm0 0v-14l-12-4v13zm-8 24v-14l-12-4v14zm-12-4v-14l-13 4v14zm8 10-8-10-13 4 8 11zm0 9-13-4-8 10 13 4zm-8 24v-14l-13-4v14zm12-4v-14l-12 4v14zm-4 15-13-5-8 11 13 4zm-8 10v14l-13-4v-14zm15 14-7 10-8-10 8-11zm13 4-13-4-7 10 12 5zm13-4-8-11-13 4 8 11zm-21 15v13l-12-4v-14zm13-5v14l-13 4v-13zm-13 18-12-4-8 11 12 4zm-25-13v13l13-4v-14zm46 20-8-11-13 4 8 11zm8-25-8 11-8-11 8-10zm4 15v14l-12-4v-14zm8-10-12-5-8 11 12 4zm21 20-8 10-8-10 8-11zm5-20v13l-13-4v-14zm-54-39v13l-13-4v-14zm-13-5-8-10-12 4 8 11zm0 0v14l-12 4v-13zm8-10-8 10-8-10 8-11zm-33-103v-13l13 4v14zm25-13-8-11-12 4 8 11zm-12-26 12 5-8 10-12-4zm94 118-8 10-7-10 7-11zm38 117v13l-12-4v-14zm-12 9-8 11 8 10 8-10zm-8 11v13l-13 4v-13zm33-11 8 11-13 4-8-11zm-5 15-12-4-8 10 12 4zm13-4v13l-13 4v-13zm-21 14v14l-12-4v-14zm8 3-8 11 8 11 8-11zm-8 11v13l-12 4v-13zm34-11 7 11-12 4-8-11zm-5 15-13-4-8 11 13 4zm-8 11v13l-13-4v-13zm13-4v13l-13 4v-13zm-13 17-8 11 8 11 8-11zm0 0-13-4-8 11 13 4zm13-4 7 11-12 4-8-11zm-21 15v13l-13 4v-13zm-13-26 8 11-12 4-8-11zm-12 4-8 11 8 11 8-11zm0-13-13-4-8 11 13 4zm-8 11v13l-13-4v-13zm-13-26-8 11 8 11 8-11zm0 0-13-4-7 11 12 4zm0 22v13l-13 4v-13zm-13 4v13l-12-4v-13zm5-15 8 11-13 4-7-11zm-33-24v13l-13-4v-13zm8 37-8 11 8 11 8-11zm20 15-7 11 7 11 8-11zm0 0-12-4-8 11 13 4zm26-43 8 11-13 4-8-11zm-13-9v13l-13-4v-13zm46 76 8 11-13 4-8-11zm8 11-8 11 8 11 8-11zm20-50-7 11 7 11 8-11zm13-9v13l-13-4v-13zm13-4 8 11-13 4-8-11zm8 11v13l-13 4v-13zm12 4v13l-12-4v-13zm13-4v13l-13 4v-13zm-5-7-13-4-7 11 12 4zm13 9-8 11 8 11 8-11zm-8-37v13l-13-4v-13zm28-4v13l-12 4v-13zm-20-7-8 11 8 10 8-10zm0 0-13-4-8 11 13 4zm0-13v13l-13-4v-14zm-21-15v13l-12 4v-13zm-12 4v13l-13-4v-13zm12 9 8 11-13 4-7-11zm-12 4-8 11 8 11 7-11zm0 0-13-4-8 11 13 4zm-21 7 8 11-13 4-8-11zm0-35-8 11 8 10 8-10zm0 0-13-4-7 11 12 4zm0 21v14l-13 4v-13zm-13 5v13l-12-4v-14zm5-15 8 10-13 5-7-11zm-5 28-7 11 7 10 8-10zm0 0-12-4-8 11 13 4zm-7 11v13l-13-4v-13zm20 6v14l-13 4v-14zm21 7-8 11 8 11 7-11zm0 0-13-4-8 11 13 4zm12-4 8 11-13 4-7-11zm-12-9v13l-13-4v-13zm12-4v13l-12 4v-13zm-20-50 8 11-13 4-8-11zm-13-9v13l-13-4v-14zm46 111 8 11-13 4-8-11zm-25 43-8 11 8 11 7-11zm0 0-13-4-8 11 13 4zm0-13v13l-13-4v-13zm45-15v13l-12 4v-13zm8 11v13l13 4v-13zm-8 2 8 11-12 4-8-11zm8 11-8 11 8 11 8-11zm8 11 13 4-8 11-13-4zm18-24v13l-13 4v-13zm-26 35v13l13 4v-13zm34-33-8 11 8 11 7-11zm7-2v13l13 4v-13zm38 52 8 11-12 4-8-11zm8 11v13l-12 4v-13zm0 0v13l13 4v-13zm8-11 13 4-8 11-13-4zm5 15v13l13-4v-13zm-25-30 12 4-8 11-12-4zm66 30v13l13-4v-13zm33-11v13l13-4v-13zm33-89-8 11 8 11 8-11zm8-2v13l13-4v-13zm0-30 13 4-8 11-13-4zm120-101v14l13-4v-14zm0-21v-14l13-4v14zm-87-107v-13l13 4v14zm-128-154 8-11-8-11-7 11zm21 85v-14l13-4v14zm13 17 7-11-7-10-8 10zm0 0 12 4 8-11-13-4zm-13 4-8-11 13-4 8 11zm13 9v-13l12 4v14zm-13 5 8 10 12-4-7-11zm0 0v-14l13-4v13zm-21-7 8-11-8-11-7 11zm0 0 13 4 8-11-13-4zm0 13v-13l13 4v13zm-25 170 13 4-8 11-13-5zm-8-11 8 11 13-4-8-11zm0 0-8 11 8 10 8-10zm-20-303v-13l-13-4v13zm-33 33 7-11-7-11-8 11zm-46-50-8-11 12-4 8 11zm-8-11v-13l12-4v13zm0 0v-13l-13-4v13zm-8 11-13-4 8-11 13 4zm20 15-12-4 8-11 12 4zm-79-26v-13l13-4v13zm-20 7v-13l-13 4v13zm-62 28 8-11 8 11-8 11zm203 322v13l12-4v-14zm0 0v13l-13-4v-14zm0 13 7 11 13-4-8-11zm0 0-8 11 8 10 7-10zm0 0-13-4-8 11 13 4zm0-35 7 11 13-4-8-11zm0 0-8 11 8 11 7-11zm0 0-13-4-8 11 13 4zm-208-124-7-11-13 5 8 10z"
			fill="#0060ed" />
	</g>
</svg>
